<?xml version="1.0" standalone="no"?>
<!DOCTYPE svg PUBLIC "-//W3C//DTD SVG 20010904//EN"
 "http://www.w3.org/TR/2001/REC-SVG-20010904/DTD/svg10.dtd">
<svg version="1.0" xmlns="http://www.w3.org/2000/svg"
 width="734.000000pt" height="734.000000pt" viewBox="0 0 734.000000 734.000000"
 preserveAspectRatio="xMidYMid meet">
<metadata>
Created by potrace 1.11, written by Peter Selinger 2001-2013
</metadata>
<g transform="translate(0.000000,734.000000) scale(0.100000,-0.100000)"
fill="#000000" stroke="none">
<path d="M3960 3815 l0 -1205 150 0 150 0 0 97 0 96 28 -39 c95 -131 240 -197
427 -197 228 1 395 89 515 271 101 154 147 324 157 577 19 511 -145 838 -477
951 -43 15 -84 19 -190 19 -117 0 -144 -3 -201 -24 -85 -31 -163 -85 -216
-150 l-43 -52 0 431 0 430 -150 0 -150 0 0 -1205z m820 309 c214 -63 312 -299
297 -713 -7 -183 -29 -289 -83 -392 -71 -135 -175 -199 -324 -199 -194 0 -322
118 -381 351 -27 107 -37 387 -19 511 35 242 135 395 289 442 62 20 156 19
221 0z"/>
<path d="M2530 3634 c-333 -713 -606 -1300 -608 -1305 -2 -5 66 -9 150 -9
l154 0 604 1296 c333 712 607 1299 608 1305 2 5 -58 9 -150 9 l-153 0 -605
-1296z"/>
<path d="M820 4066 l-815 -323 -3 -135 c-2 -103 1 -137 10 -141 7 -2 372 -147
811 -321 439 -174 802 -316 808 -316 5 0 9 61 9 144 0 128 -2 145 -17 151 -10
4 -301 112 -648 242 -346 129 -631 236 -632 237 -2 1 290 112 647 247 l650
244 0 148 c0 81 -1 147 -2 147 -2 0 -370 -146 -818 -324z"/>
<path d="M5700 4242 l0 -147 650 -244 c358 -134 649 -245 647 -247 -1 -1 -293
-111 -649 -244 l-648 -242 0 -144 c0 -85 4 -144 10 -144 6 0 1198 469 1618
637 9 4 12 38 10 141 l-3 136 -765 303 c-421 167 -789 312 -817 323 l-53 20 0
-148z"/>
</g>
</svg>
